<?xml version="1.0" standalone="no"?>
<!DOCTYPE svg PUBLIC "-//W3C//DTD SVG 20010904//EN"
 "http://www.w3.org/TR/2001/REC-SVG-20010904/DTD/svg10.dtd">
<svg version="1.0" xmlns="http://www.w3.org/2000/svg"
 width="1024.000000pt" height="1024.000000pt" viewBox="0 0 1024.000000 1024.000000"
 preserveAspectRatio="xMidYMid meet">

<g transform="translate(0.000000,1024.000000) scale(0.100000,-0.100000)"
fill="#000000" stroke="none">
<path d="M7752 7796 c-45 -12 -79 -25 -75 -30 4 -4 -4 -5 -18 -1 -25 6 -26 4
-21 -21 4 -25 3 -26 -22 -22 -14 3 -29 1 -32 -3 -7 -12 -41 -11 -46 1 -2 5
-23 2 -50 -7 -26 -8 -46 -18 -44 -22 3 -4 -10 -7 -29 -7 -32 0 -106 -31 -113
-47 -2 -4 -8 -5 -13 -1 -5 3 -9 1 -9 -3 0 -5 -9 -9 -20 -10 -35 -3 -378 -171
-475 -233 -16 -11 -40 -24 -52 -29 -32 -15 -103 -63 -103 -70 0 -3 20 -15 43
-25 23 -11 62 -32 86 -48 29 -19 50 -27 65 -23 14 4 17 3 8 -3 -10 -6 6 -20
58 -51 64 -38 72 -41 86 -27 17 18 28 21 19 6 -3 -6 5 -14 19 -20 14 -5 26
-14 26 -20 0 -13 -6 -13 -33 1 -28 14 26 -37 67 -64 23 -15 30 -16 43 -5 15
12 15 11 5 -9 -10 -17 -9 -22 2 -25 8 -2 32 -18 53 -35 21 -18 85 -72 143
-120 58 -48 111 -94 118 -103 8 -8 11 -9 7 -2 -4 7 0 12 10 12 11 0 15 -6 10
-19 -3 -12 0 -21 10 -25 11 -4 14 -2 9 6 -5 7 -3 8 6 3 7 -4 16 -2 21 6 6 9 9
10 9 2 0 -6 -4 -15 -10 -18 -5 -3 -10 -11 -10 -16 0 -6 5 -7 10 -4 6 3 10 2
10 -4 0 -17 143 -151 154 -144 6 3 8 3 4 -2 -11 -12 11 -45 26 -39 8 3 17 0
21 -6 5 -8 11 -7 23 2 14 11 14 9 0 -8 -10 -11 -18 -24 -18 -29 0 -18 33 -43
48 -38 12 3 13 2 5 -4 -16 -12 26 -75 45 -68 7 3 10 0 7 -5 -9 -14 44 -80 60
-74 7 3 16 1 20 -5 3 -7 0 -8 -9 -5 -22 9 -20 -9 4 -31 11 -10 61 -83 111
-162 51 -79 93 -142 95 -140 8 7 25 230 31 387 6 191 -10 527 -32 655 -7 44
-19 124 -26 178 -6 53 -15 97 -19 97 -4 0 -10 17 -13 38 -4 20 -11 55 -16 77
-6 22 -17 72 -25 110 -9 39 -20 79 -25 90 -15 34 -29 78 -36 112 -4 18 -11 36
-17 39 -7 5 -8 -5 -3 -32 4 -21 3 -36 -1 -31 -4 4 -8 35 -9 68 -1 33 -6 64
-12 67 -5 4 -13 19 -17 35 -3 15 -13 27 -22 27 -12 0 -13 -4 -4 -21 7 -11 9
-23 6 -26 -3 -3 -11 6 -17 21 -7 14 -15 25 -18 25 -3 -1 -43 -11 -89 -23z
m-218 -95 c6 -10 -63 -26 -72 -17 -3 3 4 6 16 6 12 0 22 5 22 10 0 12 27 13
34 1z m94 -4 c20 -1 14 -17 -7 -17 -11 0 -21 -4 -23 -8 -4 -9 -63 -52 -72 -52
-3 0 -6 14 -6 30 0 23 4 30 20 30 10 0 25 7 32 15 7 8 20 12 28 8 8 -3 21 -6
28 -6z m15 -104 c-24 -2 -62 -2 -85 0 -24 2 -5 4 42 4 47 0 66 -2 43 -4z m304
-15 c-3 -8 -6 -5 -6 6 -1 11 2 17 5 13 3 -3 4 -12 1 -19z m-780 -24 c-3 -3
-12 -4 -19 -1 -8 3 -5 6 6 6 11 1 17 -2 13 -5z m851 -224 c0 -22 -1 -22 -8 5
-4 17 -8 39 -8 50 0 16 2 15 8 -5 4 -14 8 -36 8 -50z m-1224 -59 c4 -5 -3 -7
-14 -4 -23 6 -26 13 -6 13 8 0 17 -4 20 -9z m166 -65 c0 -2 -18 -6 -39 -8 -22
-2 -37 0 -35 4 5 8 74 11 74 4z m-3 -78 c-2 -23 -1 -23 -37 12 -39 38 -38 43
4 23 22 -10 34 -23 33 -35z m83 -8 c0 -5 -7 -7 -15 -4 -8 4 -15 8 -15 10 0 2
7 4 15 4 8 0 15 -4 15 -10z m223 -7 c-13 -2 -33 -2 -45 0 -13 2 -3 4 22 4 25
0 35 -2 23 -4z m-153 -93 c0 -5 -4 -10 -10 -10 -5 0 -10 5 -10 10 0 6 5 10 10
10 6 0 10 -4 10 -10z m318 -242 c19 -19 14 -30 -8 -18 -11 6 -20 15 -20 20 0
14 14 12 28 -2z"/>
<path d="M7558 7733 c7 -3 16 -2 19 1 4 3 -2 6 -13 5 -11 0 -14 -3 -6 -6z"/>
<path d="M7700 6460 c0 -5 5 -10 10 -10 6 0 10 5 10 10 0 6 -4 10 -10 10 -5 0
-10 -4 -10 -10z"/>
<path d="M3560 6233 c-343 -58 -639 -301 -745 -613 -73 -215 -71 -421 5 -632
107 -296 364 -519 678 -588 130 -29 301 -27 426 4 374 95 634 378 701 760 18
104 19 157 5 263 -42 306 -232 573 -510 712 -86 44 -179 75 -264 90 -57 11
-244 13 -296 4z m603 -313 c61 -23 125 -80 152 -136 30 -61 32 -169 5 -232
-75 -174 -302 -226 -442 -102 -66 57 -92 117 -92 210 0 91 27 153 88 207 83
72 187 91 289 53z m-707 -799 c84 -38 133 -133 113 -221 -24 -107 -102 -166
-209 -158 -132 9 -213 127 -175 254 34 115 162 174 271 125z"/>
<path d="M6355 6225 c-277 -61 -501 -230 -635 -478 -85 -157 -116 -303 -107
-496 19 -401 292 -738 683 -841 336 -88 670 0 913 239 76 76 114 127 164 226
81 160 109 273 110 445 1 417 -294 790 -707 895 -82 21 -121 25 -230 24 -72
-1 -158 -7 -191 -14z m671 -313 c124 -63 183 -209 139 -343 -26 -77 -103 -152
-180 -175 -198 -57 -377 83 -363 283 9 125 80 216 198 254 44 15 161 4 206
-19z m-738 -788 c58 -24 101 -72 118 -131 14 -48 14 -58 0 -106 -16 -57 -70
-118 -119 -136 -83 -32 -190 3 -242 77 -42 60 -43 145 -3 214 49 82 159 119
246 82z"/>
<path d="M4975 4691 c-117 -4 -188 -10 -202 -19 -12 -7 -28 -30 -34 -53 -19
-63 -17 -66 214 -343 l68 -81 -3 -86 c-3 -73 -9 -97 -36 -152 -82 -165 -257
-250 -419 -202 -95 28 -165 99 -200 201 -19 55 -44 76 -92 78 -50 1 -92 -29
-105 -73 -13 -47 23 -154 78 -229 183 -248 566 -264 806 -35 l72 68 68 -66
c223 -220 571 -222 778 -5 85 89 135 233 103 294 -17 33 -68 55 -107 48 -46
-9 -70 -33 -89 -93 -22 -69 -89 -143 -157 -174 -42 -19 -70 -24 -133 -23 -120
0 -208 46 -281 146 -51 69 -75 138 -79 230 -3 75 -2 79 25 106 73 70 260 308
266 338 8 44 -6 83 -39 108 -24 18 -44 20 -175 22 -81 0 -228 -2 -327 -5z"/>
</g>
</svg>
